#N canvas 528 119 702 652 12;
#N canvas 173 216 301 312 space 1;
#N canvas 603 114 651 478 (subpatch) 0;
#X obj 150 150 image ot_logo-2.gif;
#X obj -49 -80 loadbang;
#X msg -49 -38 open ot_logo-2.gif;
#X connect 1 0 2 0;
#X connect 2 0 0 0;
#X coords 0 1 100 -1 300 300 1 0 0;
#X restore -137 -166 graph;
#X restore 246 66 pd space;
#N canvas 448 189 505 626 preset 0;
#X floatatom 140 97 5 0 8 2 select_which_element? - -;
#X obj 263 61 pointer;
#X msg 263 32 traverse pd-space \, next;
#X obj 172 155 get tri x y;
#X floatatom 172 185 5 0 0 0 - - -;
#X floatatom 246 185 5 0 0 0 - - -;
#X obj 32 45 f;
#X obj 64 45 + 1;
#X obj 32 71 t b f;
#X obj 55 264 expr (27*$f1)+(4*$f1);
#X obj 233 247 sel 0;
#X obj 32 223 t f f f;
#X obj 233 273 f;
#X obj 262 273 + 1;
#X obj 33 333 expr ($f1*0)+(27*$f2)+(4*$f2);
#X obj 292 273 % 9;
#X obj 97 45 % 81;
#X floatatom 233 300 5 0 0 0 - - -;
#X floatatom 33 359 5 0 0 0 - - -;
#X floatatom 55 292 5 0 0 0 - - -;
#X obj 32 138 f;
#X obj 64 138 + 1;
#X obj 97 138 % 9;
#X msg 135 4 0;
#X obj 33 393 pack f f f;
#X obj 33 428 set tri x y no;
#X obj 32 -78 bng 15 250 50 0 empty empty empty 17 7 0 10 -262144 -1
-1;
#X obj 32 -52 t b b b;
#X obj 141 125 element obj1 array1;
#X obj 32 15 repeat 81;
#X connect 0 0 28 0;
#X connect 1 0 28 1;
#X connect 2 0 1 0;
#X connect 3 0 4 0;
#X connect 3 1 5 0;
#X connect 6 0 7 0;
#X connect 6 0 8 0;
#X connect 7 0 16 0;
#X connect 8 0 20 0;
#X connect 8 1 0 0;
#X connect 8 1 24 2;
#X connect 9 0 19 0;
#X connect 10 0 12 0;
#X connect 11 0 14 0;
#X connect 11 1 9 0;
#X connect 11 2 10 0;
#X connect 12 0 13 0;
#X connect 12 0 17 0;
#X connect 13 0 15 0;
#X connect 14 0 18 0;
#X connect 15 0 12 1;
#X connect 16 0 6 1;
#X connect 17 0 14 1;
#X connect 18 0 24 0;
#X connect 19 0 24 1;
#X connect 20 0 21 0;
#X connect 20 0 11 0;
#X connect 21 0 22 0;
#X connect 22 0 20 1;
#X connect 23 0 6 1;
#X connect 23 0 20 1;
#X connect 23 0 12 1;
#X connect 24 0 25 0;
#X connect 26 0 27 0;
#X connect 27 0 29 0;
#X connect 27 1 23 0;
#X connect 27 2 2 0;
#X connect 28 0 3 0;
#X connect 28 0 25 3;
#X connect 29 0 6 0;
#X restore -9 51 pd preset;
#X floatatom -9 263 5 0 8 2 - - -;
#X obj 108 259 pointer;
#X msg 107 231 traverse pd-space \, next;
#X floatatom -9 353 5 0 0 0 - - -;
#X obj -9 174 tgl 15 0 empty empty empty 17 7 0 10 -262144 -1 -1 0
1;
#X obj -9 229 f;
#X obj 23 229 + 1;
#X msg 94 188 0;
#X obj -9 565 pack f f f;
#X obj -9 588 set tri x y no;
#X obj -9 132 t b b b;
#X floatatom 38 353 5 0 0 0 - - -;
#X obj -9 323 get tri x y;
#X obj 56 229 % 15;
#X obj -9 292 element obj1 array1;
#X obj 246 92 obj1;
#X obj 245 117 obj2;
#X obj -9 485 int;
#X floatatom -9 537 5 0 0 0 - - -;
#X obj 51 445 int;
#X floatatom 51 468 5 0 0 0 - - -;
#X obj 51 492 t b f;
#X floatatom 318 273 5 0 8 2 - - -;
#X obj 434 270 pointer;
#X msg 434 241 traverse pd-space \, next;
#X floatatom 318 363 5 0 0 0 - - -;
#X obj 318 190 tgl 15 0 empty empty empty 17 7 0 10 -262144 -1 -1 0
1;
#X obj 318 239 f;
#X obj 350 239 + 1;
#X msg 421 198 0;
#X obj 318 575 pack f f f;
#X obj 318 142 t b b b;
#X floatatom 365 363 5 0 0 0 - - -;
#N canvas 705 251 680 491 random 0;
#X obj 176 34 inlet;
#X obj 82 425 outlet;
#X obj 256 257 expr (27*$f1)+(4*$f1);
#X obj 233 317 expr ($f1*0)+(27*$f2)+(4*$f2);
#X floatatom 233 343 5 0 0 0 - - -;
#X floatatom 256 285 5 0 0 0 - - -;
#X obj 414 413 outlet;
#X obj 489 61 inlet;
#X obj 233 216 t f f b;
#X obj 176 90 t b b b f b;
#X obj 82 272 line;
#X floatatom 82 304 5 0 0 0 - - -;
#X obj 82 368 expr $f1*($f3-$f2)+$f2;
#X floatatom 82 398 5 0 0 0 - - -;
#X obj 414 383 expr $f1*($f3-$f2)+$f2;
#X obj 82 331 tweener;
#X obj 233 184 - 3;
#X obj 433 264 - 3;
#X obj 433 236 random 7;
#X obj 233 156 random 6;
#X obj 509 457 outlet;
#X obj 509 429 expr 1-$f1;
#X msg 82 245 0 \, 1 500;
#X connect 0 0 9 0;
#X connect 2 0 5 0;
#X connect 3 0 4 0;
#X connect 4 0 12 2;
#X connect 5 0 14 2;
#X connect 7 0 14 1;
#X connect 8 0 3 0;
#X connect 8 1 2 0;
#X connect 8 2 18 0;
#X connect 9 0 22 0;
#X connect 9 2 19 0;
#X connect 9 3 12 1;
#X connect 10 0 11 0;
#X connect 11 0 15 0;
#X connect 11 0 21 0;
#X connect 12 0 13 0;
#X connect 13 0 1 0;
#X connect 14 0 6 0;
#X connect 15 0 12 0;
#X connect 15 0 14 0;
#X connect 16 0 8 0;
#X connect 17 0 3 1;
#X connect 18 0 17 0;
#X connect 19 0 16 0;
#X connect 21 0 20 0;
#X connect 22 0 10 0;
#X restore 318 399 pd random;
#X obj 318 495 int;
#X floatatom 318 547 5 0 0 0 - - -;
#X obj 378 455 int;
#X floatatom 378 478 5 0 0 0 - - -;
#X obj 378 502 t b f;
#X obj 318 302 element obj2 array2;
#X obj 318 598 set tri2 x y no;
#X obj 318 47 bng 15 250 50 0 empty empty empty 17 7 0 10 -262144 -1
-1;
#X obj 318 19 loadbang;
#X obj 318 70 t b b b b b;
#X obj 475 21 del 1000;
#N canvas 705 251 680 491 random 0;
#X obj 176 34 inlet;
#X obj 82 425 outlet;
#X obj 256 257 expr (27*$f1)+(4*$f1);
#X obj 233 317 expr ($f1*0)+(27*$f2)+(4*$f2);
#X floatatom 233 343 5 0 0 0 - - -;
#X floatatom 256 285 5 0 0 0 - - -;
#X obj 414 413 outlet;
#X obj 489 61 inlet;
#X obj 233 216 t f f b;
#X obj 176 90 t b b b f b;
#X obj 82 272 line;
#X floatatom 82 304 5 0 0 0 - - -;
#X obj 82 368 expr $f1*($f3-$f2)+$f2;
#X floatatom 82 398 5 0 0 0 - - -;
#X obj 414 383 expr $f1*($f3-$f2)+$f2;
#X obj 82 331 tweener;
#X obj 233 184 - 3;
#X obj 433 264 - 3;
#X obj 433 236 random 7;
#X obj 233 156 random 6;
#X obj 499 447 outlet;
#X obj 499 419 expr 1-$f1;
#X msg 82 245 0 \, 1 500;
#X connect 0 0 9 0;
#X connect 2 0 5 0;
#X connect 3 0 4 0;
#X connect 4 0 12 2;
#X connect 5 0 14 2;
#X connect 7 0 14 1;
#X connect 8 0 3 0;
#X connect 8 1 2 0;
#X connect 8 2 18 0;
#X connect 9 0 22 0;
#X connect 9 2 19 0;
#X connect 9 3 12 1;
#X connect 10 0 11 0;
#X connect 11 0 15 0;
#X connect 11 0 21 0;
#X connect 12 0 13 0;
#X connect 13 0 1 0;
#X connect 14 0 6 0;
#X connect 15 0 12 0;
#X connect 15 0 14 0;
#X connect 16 0 8 0;
#X connect 17 0 3 1;
#X connect 18 0 17 0;
#X connect 19 0 16 0;
#X connect 21 0 20 0;
#X connect 22 0 10 0;
#X restore -9 389 pd random;
#N canvas 0 22 450 300 add-obj2 0;
#X msg 297 105 bang;
#X obj 146 138 x-append pd-space obj2;
#X obj 16 168 setsize obj2 array2;
#X msg 146 109 0 0;
#X obj 146 78 t b b b;
#X obj 144 56 bng 15 250 50 0 empty empty empty 17 7 0 10 -262144 -1
-1;
#X msg 16 134 16;
#X obj 146 21 inlet;
#X connect 0 0 1 1;
#X connect 1 0 2 1;
#X connect 3 0 1 0;
#X connect 4 0 6 0;
#X connect 4 1 3 0;
#X connect 4 2 0 0;
#X connect 5 0 4 0;
#X connect 6 0 2 0;
#X connect 7 0 5 0;
#X restore 336 119 pd add-obj2;
#N canvas 0 22 450 300 add-obj1 0;
#X obj 42 207 setsize obj1 array1;
#X obj 134 173 x-append pd-space obj1;
#X msg 281 146 bang;
#X msg 134 147 0 0;
#X obj 134 108 t b b b;
#X obj 134 86 bng 15 250 50 0 empty empty empty 17 7 0 10 -262144 -1
-1;
#X msg 42 172 15;
#X obj 129 56 inlet;
#X connect 1 0 0 1;
#X connect 2 0 1 1;
#X connect 3 0 1 0;
#X connect 4 0 6 0;
#X connect 4 1 3 0;
#X connect 4 2 2 0;
#X connect 5 0 4 0;
#X connect 6 0 0 0;
#X connect 7 0 5 0;
#X restore 373 94 pd add-obj1;
#X obj 385 548 + 15;
#X obj 383 239 % 16;
#X obj 318 332 get tri2 x y;
#X obj 162 543 dac~;
#X obj 162 468 osc~;
#X obj 207 467 osc~;
#X msg 475 51 \; pd-space vis 1 \; pd dsp 1;
#X obj 207 502 *~;
#X obj 162 504 *~;
#X obj 318 209 metro 600;
#X obj -9 199 metro 600;
#X obj 162 409 expr 440+$f1;
#X obj 207 434 expr 440+$f1;
#X obj 318 168 del 300;
#X connect 2 0 10 2;
#X connect 2 0 16 0;
#X connect 3 0 16 1;
#X connect 4 0 3 0;
#X connect 5 0 47 0;
#X connect 6 0 60 0;
#X connect 7 0 8 0;
#X connect 7 0 2 0;
#X connect 8 0 15 0;
#X connect 9 0 7 1;
#X connect 10 0 11 0;
#X connect 12 0 6 0;
#X connect 12 1 9 0;
#X connect 12 2 4 0;
#X connect 13 0 47 1;
#X connect 14 0 5 0;
#X connect 14 1 13 0;
#X connect 15 0 7 1;
#X connect 16 0 11 3;
#X connect 16 0 14 0;
#X connect 19 0 20 0;
#X connect 20 0 10 0;
#X connect 20 0 61 0;
#X connect 21 0 22 0;
#X connect 22 0 23 0;
#X connect 23 0 20 0;
#X connect 23 1 10 1;
#X connect 24 0 41 0;
#X connect 24 0 50 0;
#X connect 25 0 41 1;
#X connect 26 0 25 0;
#X connect 27 0 35 0;
#X connect 28 0 59 0;
#X connect 29 0 30 0;
#X connect 29 0 24 0;
#X connect 30 0 51 0;
#X connect 31 0 29 1;
#X connect 32 0 42 0;
#X connect 33 0 63 0;
#X connect 33 1 31 0;
#X connect 33 2 26 0;
#X connect 34 0 35 1;
#X connect 35 0 36 0;
#X connect 35 1 38 0;
#X connect 35 2 57 1;
#X connect 36 0 37 0;
#X connect 37 0 32 0;
#X connect 37 0 62 0;
#X connect 38 0 39 0;
#X connect 39 0 40 0;
#X connect 40 0 37 0;
#X connect 40 1 32 1;
#X connect 41 0 42 3;
#X connect 41 0 52 0;
#X connect 43 0 45 0;
#X connect 44 0 43 0;
#X connect 45 0 33 0;
#X connect 45 1 48 0;
#X connect 45 2 12 0;
#X connect 45 3 49 0;
#X connect 45 4 46 0;
#X connect 46 0 56 0;
#X connect 47 0 19 0;
#X connect 47 1 21 0;
#X connect 47 2 58 1;
#X connect 50 0 32 2;
#X connect 51 0 29 1;
#X connect 52 0 27 0;
#X connect 52 1 34 0;
#X connect 54 0 58 0;
#X connect 55 0 57 0;
#X connect 57 0 53 1;
#X connect 58 0 53 0;
#X connect 59 0 29 0;
#X connect 60 0 7 0;
#X connect 61 0 54 0;
#X connect 62 0 55 0;
#X connect 63 0 28 0;
