#N canvas 528 119 883 644 12;
#X text 365 31 t = current time = 0;
#X text 367 43 b = starting value = 0;
#X text 367 53 c = change needed in value = 1;
#N canvas 502 437 785 298 init 0;
#X obj 12 81 value \$0-c;
#X obj 12 9 loadbang;
#X obj 12 34 f \$2;
#X obj 145 7 loadbang;
#X obj 145 79 value \$0-d;
#X obj 145 32 f \$3;
#X obj 12 58 expr if(!$f1 \, 1 \, $f1);
#X obj 145 56 expr if(!$f1 \, 1 \, $f1);
#X obj -126 10 loadbang;
#X obj -126 35 f \$1;
#X obj -126 59 expr if(!$f1 \, 0 \, $f1);
#X obj -126 82 value \$0-b;
#X obj 289 11 loadbang;
#X obj 289 83 value \$0-s;
#X obj 289 36 f \$4;
#X obj 289 60 expr if(!$f1 \, 1.8 \, $f1);
#X connect 1 0 2 0;
#X connect 2 0 6 0;
#X connect 3 0 5 0;
#X connect 5 0 7 0;
#X connect 6 0 0 0;
#X connect 7 0 4 0;
#X connect 8 0 9 0;
#X connect 9 0 10 0;
#X connect 10 0 11 0;
#X connect 12 0 14 0;
#X connect 14 0 15 0;
#X connect 15 0 13 0;
#X restore 278 19 pd init;
#X obj 110 161 value \$0-c;
#X obj 29 103 t f b f b b b b b;
#X obj 29 11 inlet;
#X obj 29 365 outlet;
#X obj 308 182 t f f;
#X obj 176 182 t f f;
#X obj 110 181 t f f f;
#X obj 75 61 s \$0-help;
#X obj 29 62 s \$0-t;
#X obj 29 83 r \$0-t;
#N canvas 664 473 450 300 help 0;
#X msg 65 73 t = current time = default 0;
#X msg 68 99 b = arg1 = starting value = default 0;
#X msg 70 131 c = arg2 = change needed in value = default 1;
#X obj 15 14 r \$0-help;
#X obj 15 39 t b b b b b b;
#X obj 29 269 print OutElastic;
#X msg 73 162 d = arg3 = expected easing duration = frames per sec
= default 1;
#X msg 77 203 s = arg4 = overshoot amount = default 1.8;
#X connect 0 0 5 0;
#X connect 1 0 5 0;
#X connect 2 0 5 0;
#X connect 3 0 4 0;
#X connect 4 1 7 0;
#X connect 4 2 6 0;
#X connect 4 3 2 0;
#X connect 4 4 1 0;
#X connect 4 5 0 0;
#X connect 6 0 5 0;
#X connect 7 0 5 0;
#X restore 278 37 pd help;
#X text 367 65 d = expected easing duration (frames per sec) = 1;
#X obj 136 60 s \$0-dump;
#N canvas 384 288 643 370 dump 0;
#X obj 97 81 value \$0-c;
#X obj 165 81 value \$0-d;
#X obj 30 81 value \$0-b;
#X obj 30 10 r \$0-dump;
#X obj 21 167 print OutElastic;
#X obj 234 81 value \$0-s;
#X obj 20 140 pack f f f f;
#X obj 31 37 t b b b b;
#X connect 0 0 6 1;
#X connect 1 0 6 2;
#X connect 2 0 6 0;
#X connect 3 0 7 0;
#X connect 5 0 6 3;
#X connect 6 0 4 0;
#X connect 7 0 2 0;
#X connect 7 1 0 0;
#X connect 7 2 1 0;
#X connect 7 3 5 0;
#X restore 278 56 pd dump;
#X obj 29 31 route float help dump list;
#X obj 196 60 s \$0-vars;
#N canvas 267 303 804 419 set-vars 0;
#X obj 95 96 value \$0-c;
#X obj 163 96 value \$0-d;
#X obj 28 96 value \$0-b;
#X obj 28 10 r \$0-vars;
#X obj 25 33 t b l;
#X obj 28 69 unpack f f f f;
#X obj 232 96 value \$0-s;
#X connect 3 0 4 0;
#X connect 4 1 5 0;
#X connect 5 0 2 0;
#X connect 5 1 0 0;
#X connect 5 2 1 0;
#X connect 5 3 6 0;
#X restore 278 75 pd set-vars;
#X obj 242 182 t f f f;
#X obj 143 369 expr 1*(($f1/1-1)*($f1/1-1)*(($f2+1)*($f1/1-1)+$f2)+1)+0
;
#X text 422 303 c*((t=t/d-1)*t*((s+1)*t+s)+1)+b;
#X obj 176 161 value \$0-d;
#X obj 242 161 value \$0-b;
#X obj 308 161 value \$0-s;
#X text 366 16 easeOutBack;
#X text 367 75 s = overshoot amount = 1.8;
#X obj 28 289 expr $f2*(($f1/$f3-1)*($f1/$f3-1)*(($f5+1)*($f1/$f3-1)+$f5)+1)+$f4
;
#X connect 4 0 10 0;
#X connect 5 0 29 0;
#X connect 5 3 4 0;
#X connect 5 4 24 0;
#X connect 5 5 25 0;
#X connect 5 6 26 0;
#X connect 6 0 18 0;
#X connect 8 0 29 4;
#X connect 9 0 29 2;
#X connect 10 0 29 1;
#X connect 13 0 5 0;
#X connect 18 0 12 0;
#X connect 18 1 11 0;
#X connect 18 2 16 0;
#X connect 18 3 19 0;
#X connect 21 0 29 3;
#X connect 24 0 9 0;
#X connect 25 0 21 0;
#X connect 26 0 8 0;
#X connect 29 0 7 0;
