#N canvas 522 189 680 417 10;
#X obj 266 272 separator;
#X obj 266 246 alpha;
#X obj 330 270 separator;
#N canvas 664 169 776 625 repeat 0;
#X obj 130 606 polygon 3;
#X msg 147 519 0 0 0;
#X msg 164 545 0.95 0 0;
#X msg 181 569 0 -0.95 0;
#X obj 157 76 f;
#X obj 187 77 + 1;
#X obj 130 53 t a b;
#X obj 130 171 translateXYZ;
#X obj 130 147 separator;
#X obj 157 236 f;
#X obj 187 237 + 1;
#X obj 130 213 t a b;
#X obj 130 326 translateXYZ;
#X obj 130 305 separator;
#X obj 130 191 repeat 11;
#X obj 214 238 % 11;
#X obj 130 -2 inlet;
#X obj 214 77 % 11;
#X obj 130 28 repeat 11;
#X obj 157 123 expr ($f1/11)*11.55;
#X obj 157 282 expr ($f1/11)*-11.55;
#X obj 130 492 t a b b b;
#X msg 40 570 draw line;
#X msg 40 525 draw fill;
#X msg 38 493 width 4;
#X obj 274 305 expr $f2*10+$f1;
#X obj 130 363 separator;
#X obj 453 441 separator;
#X msg 571 501 text \$1;
#X obj 463 498 colorRGB 1 0 0 1;
#X obj 473 554 text2d 0.05;
#X obj 464 472 translateXYZ 0 0 0.01;
#X obj 274 327 tabread d1;
#X obj 316 150 tabwrite d1;
#X obj 316 120 unpack f f;
#X obj 130 394 colorRGB 1 0 0 1;
#X obj 130 417 alpha;
#X msg 344 48 \; d1 const 1;
#X msg 316 85 24 0 \, 25 0 \, 33 0 \, 35 0 \, 37 0 \, 43 0 \, 44 0
\, 45 0 \, 47 0 \, 53 0 \, 56 0 \, 63 0 \, 65 0 \, 74 0 \, 83 0 \,
85 0 \,;
#X obj 274 351 sel 1 0;
#X msg 274 374 1 0 0 1;
#X msg 294 401 1 1 1 1;
#X obj 274 423 unpack f f f f;
#X obj 316 4 loadbang;
#X msg 285 469 0;
#X msg 315 470 1;
#X obj 285 502 *;
#X obj 130 459 translateXYZ 0 0 0;
#X obj 157 98 t f f b;
#X obj 157 258 t f f b;
#X obj 285 527 +;
#X obj 322 523 randomF 0.05;
#X obj 316 25 t b b b;
#X obj 401 400 inlet;
#X connect 1 0 0 1;
#X connect 2 0 0 2;
#X connect 3 0 0 3;
#X connect 4 0 5 0;
#X connect 4 0 48 0;
#X connect 5 0 17 0;
#X connect 6 0 8 0;
#X connect 6 1 4 0;
#X connect 7 0 14 0;
#X connect 8 0 7 0;
#X connect 9 0 10 0;
#X connect 9 0 49 0;
#X connect 10 0 15 0;
#X connect 11 0 13 0;
#X connect 11 1 9 0;
#X connect 12 0 26 0;
#X connect 13 0 12 0;
#X connect 14 0 11 0;
#X connect 15 0 9 1;
#X connect 16 0 18 0;
#X connect 17 0 4 1;
#X connect 18 0 6 0;
#X connect 19 0 7 1;
#X connect 20 0 12 2;
#X connect 21 0 0 0;
#X connect 21 1 1 0;
#X connect 21 2 2 0;
#X connect 21 3 3 0;
#X connect 22 0 0 0;
#X connect 23 0 0 0;
#X connect 24 0 0 0;
#X connect 25 0 32 0;
#X connect 26 0 35 0;
#X connect 27 0 31 0;
#X connect 28 0 30 0;
#X connect 29 0 30 0;
#X connect 31 0 29 0;
#X connect 32 0 39 0;
#X connect 34 0 33 1;
#X connect 34 1 33 0;
#X connect 35 0 36 0;
#X connect 36 0 47 0;
#X connect 38 0 34 0;
#X connect 39 0 40 0;
#X connect 39 0 44 0;
#X connect 39 1 41 0;
#X connect 39 1 45 0;
#X connect 40 0 42 0;
#X connect 41 0 42 0;
#X connect 42 0 35 1;
#X connect 42 1 35 2;
#X connect 42 2 35 3;
#X connect 42 3 35 4;
#X connect 43 0 52 0;
#X connect 44 0 46 0;
#X connect 45 0 46 0;
#X connect 46 0 50 0;
#X connect 47 0 21 0;
#X connect 48 0 19 0;
#X connect 48 1 25 1;
#X connect 49 0 20 0;
#X connect 49 1 25 0;
#X connect 49 2 51 0;
#X connect 50 0 47 3;
#X connect 51 0 50 1;
#X connect 52 0 38 0;
#X connect 52 1 38 0;
#X connect 52 2 37 0;
#X connect 53 0 46 1;
#X restore 266 296 pd repeat;
#X obj 266 171 translateXYZ -2.3 2.3 0;
#X obj 266 -16 gemhead 20;
#X obj 427 204 gemhead;
#X obj 427 229 pix_texture;
#X obj 266 219 scaleXYZ 0.4 0.4 1;
#X obj 266 196 colorRGB 1 1 1 1;
#X obj 34 68 table d1;
#X obj 35 93 table d2;
#N canvas 235 152 776 625 repeat 0;
#X obj 157 76 f;
#X obj 187 77 + 1;
#X obj 130 53 t a b;
#X obj 130 171 translateXYZ;
#X obj 130 147 separator;
#X obj 157 236 f;
#X obj 187 237 + 1;
#X obj 130 213 t a b;
#X obj 130 326 translateXYZ;
#X obj 130 305 separator;
#X obj 130 191 repeat 11;
#X obj 214 238 % 11;
#X obj 130 -2 inlet;
#X obj 214 77 % 11;
#X obj 130 28 repeat 11;
#X obj 157 123 expr ($f1/11)*11.55;
#X obj 157 282 expr ($f1/11)*-11.55;
#X msg 39 545 draw line;
#X msg 38 521 draw fill;
#X msg 36 489 width 4;
#X obj 157 98 t f f;
#X obj 284 215 expr $f2*10+$f1;
#X obj 130 353 separator;
#X obj 593 398 separator;
#X msg 724 458 text \$1;
#X obj 613 511 text2d 0.05;
#X obj 604 429 translateXYZ 0 0 0.01;
#X obj 326 157 unpack f f;
#X obj 130 384 colorRGB 1 0 0 1;
#X obj 130 409 alpha;
#X obj 130 579 polygon 3;
#X msg 147 503 1 -0.05 0;
#X msg 164 530 0.05 -1 0;
#X msg 181 554 1 -1 0;
#X obj 130 465 t a b b b;
#X obj 284 233 tabread d2;
#X msg 353 69 \; d2 const 1;
#X obj 603 455 colorRGB 0 0 1 1;
#X obj 326 187 tabwrite d2;
#X msg 326 122 23 0 \, 25 0 \, 33 0 \, 35 0 \, 36 0 \, 37 0 \, 43 0
\, 46 0 \, 55 0 \, 63 0 \, 64 0 \, 73 0 \, 74 0 \, 85 0;
#X obj 284 258 sel 1 0;
#X msg 284 281 1 0 0 1;
#X msg 304 308 1 1 1 1;
#X obj 284 330 unpack f f f f;
#X obj 326 15 loadbang;
#X msg 266 405 0;
#X msg 296 406 1;
#X obj 266 438 *;
#X obj 130 438 translateXYZ 0 0 0;
#X obj 266 520 +;
#X obj 283 498 randomF 0.05;
#X obj 157 258 t f f b;
#X obj 326 36 t b b b;
#X obj 409 373 inlet;
#X connect 0 0 1 0;
#X connect 0 0 20 0;
#X connect 1 0 13 0;
#X connect 2 0 4 0;
#X connect 2 1 0 0;
#X connect 3 0 10 0;
#X connect 4 0 3 0;
#X connect 5 0 6 0;
#X connect 5 0 51 0;
#X connect 6 0 11 0;
#X connect 7 0 9 0;
#X connect 7 1 5 0;
#X connect 8 0 22 0;
#X connect 9 0 8 0;
#X connect 10 0 7 0;
#X connect 11 0 5 1;
#X connect 12 0 14 0;
#X connect 13 0 0 1;
#X connect 14 0 2 0;
#X connect 15 0 3 1;
#X connect 16 0 8 2;
#X connect 17 0 30 0;
#X connect 18 0 30 0;
#X connect 20 0 15 0;
#X connect 20 1 21 1;
#X connect 21 0 35 0;
#X connect 22 0 28 0;
#X connect 23 0 26 0;
#X connect 24 0 25 0;
#X connect 26 0 37 0;
#X connect 27 0 38 1;
#X connect 27 1 38 0;
#X connect 28 0 29 0;
#X connect 29 0 48 0;
#X connect 31 0 30 1;
#X connect 32 0 30 2;
#X connect 33 0 30 3;
#X connect 34 0 30 0;
#X connect 34 1 31 0;
#X connect 34 2 32 0;
#X connect 34 3 33 0;
#X connect 35 0 40 0;
#X connect 37 0 25 0;
#X connect 39 0 27 0;
#X connect 40 0 41 0;
#X connect 40 0 45 0;
#X connect 40 1 42 0;
#X connect 40 1 46 0;
#X connect 41 0 43 0;
#X connect 42 0 43 0;
#X connect 43 0 28 1;
#X connect 43 1 28 2;
#X connect 43 2 28 3;
#X connect 43 3 28 4;
#X connect 44 0 52 0;
#X connect 45 0 47 0;
#X connect 46 0 47 0;
#X connect 47 0 49 0;
#X connect 48 0 34 0;
#X connect 49 0 48 3;
#X connect 50 0 49 1;
#X connect 51 0 16 0;
#X connect 51 1 21 0;
#X connect 51 2 50 0;
#X connect 52 0 39 0;
#X connect 52 1 39 0;
#X connect 52 2 36 0;
#X connect 53 0 47 1;
#X restore 330 295 pd repeat;
#X obj 145 68 adc~;
#X floatatom 502 203 5 0 0 0 - - -;
#X obj 427 288 circle 3.5;
#X obj 145 166 s \$0-vol;
#X obj 266 20 gemframebuffer;
#X obj 266 81 translateXYZ 0 0 -4;
#X obj 334 -36 loadbang;
#X obj 266 46 scaleXYZ 2 2 1;
#X msg 334 -10 dimen 512 512;
#X obj 266 116 rotateXYZ 0 0 22.5;
#X msg 74 248 reset \, create \, 1;
#X obj 74 278 gemwin;
#X msg 34 221 destroy;
#X obj 34 189 sel 0 1;
#X obj 34 150 tgl 30 0 empty empty empty 17 7 0 10 -262144 -1 -1 1
1;
#X obj 145 93 env~;
#X floatatom 145 116 5 0 0 0 - - -;
#X obj 145 140 / 100;
#X msg 72 150 \; pd dsp 1;
#N canvas 553 77 692 588 rotate 0;
#X obj 162 281 line;
#X obj 162 381 expr $f1*($f3-$f2)+$f2;
#X msg 209 304 22.5;
#X msg 244 304 108;
#X obj 248 224 sel 0 1;
#X msg 281 304 108;
#X msg 316 304 22.5;
#X obj 250 251 t b b;
#X msg 317 264 set \$1;
#X obj 317 242 + 50;
#X obj 317 219 random 180;
#X obj 162 327 outexpo;
#X obj 339 118 s \$0-vol;
#X obj 162 40 spigot;
#X obj 195 16 tgl 15 0 empty empty empty 17 7 0 10 -262144 -1 -1 1
1;
#X msg 226 108 0;
#X msg 260 131 1;
#X obj 162 119 sel 1;
#X obj 162 141 t b b b;
#X obj 162 173 f;
#X obj 187 173 + 1;
#X obj 216 172 % 2;
#X msg 162 257 0 \, 1 1000;
#X msg 260 110 del 1000;
#X obj 162 99 change;
#X obj 195 -12 loadbang;
#X obj 162 -41 inlet;
#X obj 161 422 outlet;
#X obj 162 224 t b f f;
#X obj 162 72 > 0.9;
#X connect 0 0 11 0;
#X connect 1 0 27 0;
#X connect 2 0 1 1;
#X connect 3 0 1 2;
#X connect 4 0 7 0;
#X connect 4 1 5 0;
#X connect 4 1 6 0;
#X connect 5 0 1 1;
#X connect 6 0 1 2;
#X connect 7 0 2 0;
#X connect 7 0 3 0;
#X connect 7 1 10 0;
#X connect 8 0 3 0;
#X connect 8 0 5 0;
#X connect 9 0 8 0;
#X connect 10 0 9 0;
#X connect 11 0 1 0;
#X connect 13 0 29 0;
#X connect 14 0 13 1;
#X connect 15 0 14 0;
#X connect 16 0 14 0;
#X connect 17 0 18 0;
#X connect 18 0 19 0;
#X connect 18 1 23 0;
#X connect 18 2 15 0;
#X connect 19 0 20 0;
#X connect 19 0 28 0;
#X connect 20 0 21 0;
#X connect 21 0 19 1;
#X connect 22 0 0 0;
#X connect 23 0 16 0;
#X connect 24 0 17 0;
#X connect 25 0 14 0;
#X connect 26 0 13 0;
#X connect 28 0 22 0;
#X connect 28 1 4 0;
#X connect 29 0 24 0;
#X restore 521 144 pd rotate;
#X obj 502 87 r \$0-vol;
#X obj 502 228 expr ($f1-0.3)*0.4+3;
#X obj 34 119 loadbang;
#X obj 502 115 t f f f;
#N canvas 553 77 692 588 tran 0;
#X obj 162 281 line;
#X obj 162 381 expr $f1*($f3-$f2)+$f2;
#X msg 244 304 0.342757;
#X obj 248 224 sel 0 1;
#X obj 250 251 t b b;
#X msg 317 264 set \$1;
#X obj 162 327 outexpo;
#X obj 162 40 spigot;
#X obj 195 16 tgl 15 0 empty empty empty 17 7 0 10 -262144 -1 -1 1
1;
#X msg 226 108 0;
#X msg 260 131 1;
#X obj 162 119 sel 1;
#X obj 162 141 t b b b;
#X obj 162 173 f;
#X obj 187 173 + 1;
#X obj 216 172 % 2;
#X msg 162 257 0 \, 1 1000;
#X msg 260 110 del 1000;
#X obj 162 99 change;
#X obj 195 -12 loadbang;
#X obj 162 -41 inlet;
#X obj 161 422 outlet;
#X obj 162 224 t b f f;
#X msg 209 304 0;
#X msg 281 304 0.342757;
#X msg 347 302 0;
#X obj 162 71 > 0.75;
#X obj 317 217 randomF 2;
#X obj 317 242 - 1;
#X connect 0 0 6 0;
#X connect 1 0 21 0;
#X connect 2 0 1 2;
#X connect 3 0 4 0;
#X connect 3 1 24 0;
#X connect 3 1 25 0;
#X connect 4 0 23 0;
#X connect 4 0 2 0;
#X connect 4 1 27 0;
#X connect 5 0 2 0;
#X connect 5 0 24 0;
#X connect 6 0 1 0;
#X connect 7 0 26 0;
#X connect 8 0 7 1;
#X connect 9 0 8 0;
#X connect 10 0 8 0;
#X connect 11 0 12 0;
#X connect 12 0 13 0;
#X connect 12 1 17 0;
#X connect 12 2 9 0;
#X connect 13 0 14 0;
#X connect 13 0 22 0;
#X connect 14 0 15 0;
#X connect 15 0 13 1;
#X connect 16 0 0 0;
#X connect 17 0 10 0;
#X connect 18 0 11 0;
#X connect 19 0 8 0;
#X connect 20 0 7 0;
#X connect 22 0 16 0;
#X connect 22 1 3 0;
#X connect 23 0 1 1;
#X connect 24 0 1 1;
#X connect 25 0 1 2;
#X connect 26 0 18 0;
#X connect 27 0 28 0;
#X connect 28 0 5 0;
#X restore 546 173 pd tran;
#X connect 0 0 3 0;
#X connect 1 0 0 0;
#X connect 1 0 2 0;
#X connect 2 0 12 0;
#X connect 4 0 9 0;
#X connect 5 0 17 0;
#X connect 6 0 7 0;
#X connect 7 0 15 0;
#X connect 8 0 1 0;
#X connect 9 0 8 0;
#X connect 13 0 28 0;
#X connect 13 1 28 0;
#X connect 14 0 34 0;
#X connect 17 0 20 0;
#X connect 17 1 7 1;
#X connect 18 0 22 0;
#X connect 19 0 21 0;
#X connect 20 0 18 0;
#X connect 21 0 17 0;
#X connect 22 0 4 0;
#X connect 23 0 24 0;
#X connect 25 0 24 0;
#X connect 26 0 25 0;
#X connect 26 1 23 0;
#X connect 27 0 26 0;
#X connect 28 0 29 0;
#X connect 29 0 30 0;
#X connect 30 0 16 0;
#X connect 32 0 22 3;
#X connect 33 0 36 0;
#X connect 34 0 15 1;
#X connect 35 0 31 0;
#X connect 35 0 27 0;
#X connect 36 0 14 0;
#X connect 36 1 32 0;
#X connect 36 2 37 0;
#X connect 37 0 3 1;
#X connect 37 0 12 1;
