#N canvas 118 130 883 644 12;
#N canvas 618 330 412 409 space 1;
#N canvas 0 22 651 478 (subpatch) 0;
#X obj -44 -6 bng 15 250 50 0 empty empty empty 17 7 0 10 -262144 -1
-1;
#X obj -44 12 openpanel;
#X msg -44 34 open \$1;
#X obj 150 150 image ot_logo-2.gif
;
#X connect 0 0 1 0;
#X connect 1 0 2 0;
#X connect 2 0 3 0;
#X coords 0 1 100 -1 300 300 1 0 0;
#X restore -105 -74 graph;
#X restore 246 66 pd space;
#N canvas 448 189 505 626 preset 0;
#X floatatom 140 97 5 0 8 2 select_which_element? - -;
#X obj 263 61 pointer;
#X msg 263 32 traverse pd-space \, next;
#X obj 172 155 get tri x y;
#X floatatom 172 185 5 0 0 0 - - -;
#X floatatom 246 185 5 0 0 0 - - -;
#X obj 32 45 f;
#X obj 64 45 + 1;
#X obj 32 71 t b f;
#X obj 55 264 expr (27*$f1)+(4*$f1);
#X obj 233 247 sel 0;
#X obj 32 223 t f f f;
#X obj 233 273 f;
#X obj 262 273 + 1;
#X obj 33 333 expr ($f1*0)+(27*$f2)+(4*$f2);
#X obj 292 273 % 9;
#X obj 97 45 % 81;
#X floatatom 233 300 5 0 0 0 - - -;
#X floatatom 33 359 5 0 0 0 - - -;
#X floatatom 55 292 5 0 0 0 - - -;
#X obj 32 138 f;
#X obj 64 138 + 1;
#X obj 97 138 % 9;
#X msg 135 4 0;
#X obj 33 393 pack f f f;
#X obj 33 428 set tri x y no;
#X obj 32 -78 bng 15 250 50 0 empty empty empty 17 7 0 10 -262144 -1
-1;
#X obj 32 -52 t b b b;
#X obj 141 125 element obj1 array1;
#X obj 32 15 repeat 81;
#X connect 0 0 28 0;
#X connect 1 0 28 1;
#X connect 2 0 1 0;
#X connect 3 0 4 0;
#X connect 3 1 5 0;
#X connect 6 0 7 0;
#X connect 6 0 8 0;
#X connect 7 0 16 0;
#X connect 8 0 20 0;
#X connect 8 1 0 0;
#X connect 8 1 24 2;
#X connect 9 0 19 0;
#X connect 10 0 12 0;
#X connect 11 0 14 0;
#X connect 11 1 9 0;
#X connect 11 2 10 0;
#X connect 12 0 13 0;
#X connect 12 0 17 0;
#X connect 13 0 15 0;
#X connect 14 0 18 0;
#X connect 15 0 12 1;
#X connect 16 0 6 1;
#X connect 17 0 14 1;
#X connect 18 0 24 0;
#X connect 19 0 24 1;
#X connect 20 0 21 0;
#X connect 20 0 11 0;
#X connect 21 0 22 0;
#X connect 22 0 20 1;
#X connect 23 0 6 1;
#X connect 23 0 20 1;
#X connect 23 0 12 1;
#X connect 24 0 25 0;
#X connect 26 0 27 0;
#X connect 27 0 29 0;
#X connect 27 1 23 0;
#X connect 27 2 2 0;
#X connect 28 0 3 0;
#X connect 28 0 25 3;
#X connect 29 0 6 0;
#X restore -9 51 pd preset;
#X floatatom -9 263 5 0 8 2 - - -;
#X obj 108 259 pointer;
#X msg 107 231 traverse pd-space \, next;
#X floatatom -9 353 5 0 0 0 - - -;
#X obj -9 174 tgl 15 0 empty empty empty 17 7 0 10 -262144 -1 -1 0
1;
#X obj -9 229 f;
#X obj 23 229 + 1;
#X msg 94 188 0;
#X obj -9 565 pack f f f;
#X obj -9 588 set tri x y no;
#X obj -9 106 bng 15 250 50 0 empty empty empty 17 7 0 10 -262144 -1
-1;
#X obj -9 132 t b b b;
#X floatatom 38 353 5 0 0 0 - - -;
#N canvas 125 147 1279 566 random 0;
#X msg 242 299 -124 \, 93 200;
#X msg 237 140 set \$1;
#X msg 216 119 addcomma;
#X obj 176 90 t b b b f;
#X obj 176 59 inlet;
#X obj 242 348 outlet;
#X obj -7 187 expr (27*$f1)+(4*$f1);
#X obj -29 256 expr ($f1*0)+(27*$f2)+(4*$f2);
#X floatatom -29 282 5 0 0 0 - - -;
#X floatatom -7 215 5 0 0 0 - - -;
#X obj 553 357 outlet;
#X msg 555 301 -124 \, -155 200;
#X msg 550 142 set \$1;
#X msg 529 121 addcomma;
#X obj 489 92 t b b b f;
#X obj 489 61 inlet;
#X obj -30 146 t f f b;
#X msg 138 301 add2 \$1 200;
#X msg 404 235 add2 \$1 200;
#X obj -30 86 random 10;
#X obj 172 165 random 10;
#X obj -30 114 - 5;
#X obj 172 193 - 5;
#X connect 0 0 5 0;
#X connect 1 0 0 0;
#X connect 2 0 0 0;
#X connect 3 0 0 0;
#X connect 3 0 11 0;
#X connect 3 1 19 0;
#X connect 3 2 2 0;
#X connect 3 3 1 0;
#X connect 4 0 3 0;
#X connect 6 0 9 0;
#X connect 7 0 8 0;
#X connect 8 0 17 0;
#X connect 9 0 18 0;
#X connect 11 0 10 0;
#X connect 12 0 11 0;
#X connect 13 0 11 0;
#X connect 14 2 13 0;
#X connect 14 3 12 0;
#X connect 15 0 14 0;
#X connect 16 0 7 0;
#X connect 16 1 6 0;
#X connect 16 2 20 0;
#X connect 17 0 0 0;
#X connect 18 0 11 0;
#X connect 19 0 21 0;
#X connect 20 0 22 0;
#X connect 21 0 16 0;
#X connect 22 0 7 1;
#X restore -9 389 pd random;
#X obj -9 419 line;
#X obj 51 419 line;
#X obj -9 323 get tri x y;
#X obj 56 229 % 15;
#X msg 136 20 clear;
#X obj 136 46 s pd-space;
#X obj 560 342 setsize obj1 array1;
#X obj 652 308 x-append pd-space obj1;
#X msg 799 281 bang;
#X msg 776 117 bang;
#X obj 625 150 x-append pd-space obj2;
#X obj 495 180 setsize obj2 array2;
#X msg 652 282 0 0;
#X msg 625 121 0 0;
#X obj 625 90 t b b b;
#X obj 623 68 bng 15 250 50 0 empty empty empty 17 7 0 10 -262144 -1
-1;
#X obj 652 243 t b b b;
#X obj 652 221 bng 15 250 50 0 empty empty empty 17 7 0 10 -262144
-1 -1;
#X msg 495 146 16;
#X obj -9 292 element obj1 array1;
#X obj 246 92 obj1;
#X obj 245 117 obj2;
#X msg 560 307 15;
#X obj -9 485 int;
#X floatatom -9 537 5 0 0 0 - - -;
#X obj 51 445 int;
#X floatatom 51 468 5 0 0 0 - - -;
#X obj 51 492 t b f;
#X obj -9 199 metro 300;
#X floatatom 318 273 5 0 8 2 - - -;
#X obj 434 270 pointer;
#X msg 434 241 traverse pd-space \, next;
#X floatatom 318 363 5 0 0 0 - - -;
#X obj 318 184 tgl 15 0 empty empty empty 17 7 0 10 -262144 -1 -1 0
1;
#X obj 318 239 f;
#X obj 350 239 + 1;
#X msg 421 198 0;
#X obj 318 575 pack f f f;
#X obj 318 116 bng 15 250 50 0 empty empty empty 17 7 0 10 -262144
-1 -1;
#X obj 318 142 t b b b;
#X floatatom 365 363 5 0 0 0 - - -;
#N canvas 125 147 1279 566 random 0;
#X msg 242 299 -93 \, 62 200;
#X msg 237 140 set \$1;
#X msg 216 119 addcomma;
#X obj 176 90 t b b b f;
#X obj 176 59 inlet;
#X obj 242 348 outlet;
#X obj -7 187 expr (27*$f1)+(4*$f1);
#X obj -29 256 expr ($f1*0)+(27*$f2)+(4*$f2);
#X floatatom -29 282 5 0 0 0 - - -;
#X floatatom -7 215 5 0 0 0 - - -;
#X obj 553 357 outlet;
#X msg 555 301 31 \, 62 200;
#X msg 550 142 set \$1;
#X msg 529 121 addcomma;
#X obj 489 92 t b b b f;
#X obj 489 61 inlet;
#X obj -30 146 t f f b;
#X msg 138 301 add2 \$1 200;
#X msg 404 235 add2 \$1 200;
#X obj -30 86 random 10;
#X obj 172 165 random 10;
#X obj -30 114 - 5;
#X obj 172 193 - 5;
#X connect 0 0 5 0;
#X connect 1 0 0 0;
#X connect 2 0 0 0;
#X connect 3 0 0 0;
#X connect 3 0 11 0;
#X connect 3 1 19 0;
#X connect 3 2 2 0;
#X connect 3 3 1 0;
#X connect 4 0 3 0;
#X connect 6 0 9 0;
#X connect 7 0 8 0;
#X connect 8 0 17 0;
#X connect 9 0 18 0;
#X connect 11 0 10 0;
#X connect 12 0 11 0;
#X connect 13 0 11 0;
#X connect 14 2 13 0;
#X connect 14 3 12 0;
#X connect 15 0 14 0;
#X connect 16 0 7 0;
#X connect 16 1 6 0;
#X connect 16 2 20 0;
#X connect 17 0 0 0;
#X connect 18 0 11 0;
#X connect 19 0 21 0;
#X connect 20 0 22 0;
#X connect 21 0 16 0;
#X connect 22 0 7 1;
#X restore 318 399 pd random;
#X obj 318 429 line;
#X obj 378 429 line;
#X obj 383 239 % 15;
#X obj 318 495 int;
#X floatatom 318 547 5 0 0 0 - - -;
#X obj 378 455 int;
#X floatatom 378 478 5 0 0 0 - - -;
#X obj 378 502 t b f;
#X obj 318 209 metro 300;
#X obj 318 302 element obj2 array2;
#X obj 318 598 set tri2 x y no;
#X obj 318 332 get tri x y;
#X obj 318 70 t b b b b;
#X obj 318 47 bng 15 250 50 0 empty empty empty 17 7 0 10 -262144 -1
-1;
#X obj 318 19 loadbang;
#X connect 2 0 10 2;
#X connect 2 0 35 0;
#X connect 3 0 35 1;
#X connect 4 0 3 0;
#X connect 5 0 15 0;
#X connect 6 0 44 0;
#X connect 7 0 8 0;
#X connect 7 0 2 0;
#X connect 8 0 19 0;
#X connect 9 0 7 1;
#X connect 10 0 11 0;
#X connect 12 0 13 0;
#X connect 13 0 6 0;
#X connect 13 1 9 0;
#X connect 13 2 4 0;
#X connect 14 0 15 1;
#X connect 15 0 16 0;
#X connect 15 1 17 0;
#X connect 16 0 39 0;
#X connect 17 0 41 0;
#X connect 18 0 5 0;
#X connect 18 1 14 0;
#X connect 19 0 7 1;
#X connect 20 0 21 0;
#X connect 23 0 22 1;
#X connect 24 0 23 1;
#X connect 25 0 26 1;
#X connect 26 0 27 1;
#X connect 28 0 23 0;
#X connect 29 0 26 0;
#X connect 30 0 34 0;
#X connect 30 1 29 0;
#X connect 30 2 25 0;
#X connect 31 0 30 0;
#X connect 32 0 38 0;
#X connect 32 1 28 0;
#X connect 32 2 24 0;
#X connect 33 0 32 0;
#X connect 34 0 27 0;
#X connect 35 0 11 3;
#X connect 35 0 18 0;
#X connect 38 0 22 0;
#X connect 39 0 40 0;
#X connect 40 0 10 0;
#X connect 41 0 42 0;
#X connect 42 0 43 0;
#X connect 43 0 40 0;
#X connect 43 1 10 1;
#X connect 44 0 7 0;
#X connect 45 0 53 2;
#X connect 45 0 67 0;
#X connect 46 0 67 1;
#X connect 47 0 46 0;
#X connect 48 0 57 0;
#X connect 49 0 66 0;
#X connect 50 0 51 0;
#X connect 50 0 45 0;
#X connect 51 0 60 0;
#X connect 52 0 50 1;
#X connect 53 0 68 0;
#X connect 54 0 55 0;
#X connect 55 0 49 0;
#X connect 55 1 52 0;
#X connect 55 2 47 0;
#X connect 56 0 57 1;
#X connect 57 0 58 0;
#X connect 57 1 59 0;
#X connect 58 0 61 0;
#X connect 59 0 63 0;
#X connect 60 0 50 1;
#X connect 61 0 62 0;
#X connect 62 0 53 0;
#X connect 63 0 64 0;
#X connect 64 0 65 0;
#X connect 65 0 62 0;
#X connect 65 1 53 1;
#X connect 66 0 50 0;
#X connect 67 0 68 3;
#X connect 67 0 69 0;
#X connect 69 0 48 0;
#X connect 69 1 56 0;
#X connect 70 0 54 0;
#X connect 70 1 31 0;
#X connect 70 2 12 0;
#X connect 70 3 33 0;
#X connect 71 0 70 0;
#X connect 72 0 71 0;
